<svg version="1.1" id="Layer_1" xmlns="http://www.w3.org/2000/svg" xmlns:xlink="http://www.w3.org/1999/xlink" x="0px" y="0px"
	 width="100%" viewBox="0 0 314 92" enable-background="new 0 0 314 92" xml:space="preserve">
<path fill="#FFFFFF" opacity="1.000000" stroke="none" 
	d="
M315.000000,90.000000 
	C315.000000,90.999458 315.000000,91.998909 315.000000,92.998779 
	C210.390839,92.999184 105.781670,92.999184 1.086254,92.999184 
	C1.086254,62.407742 1.086254,31.815157 1.086254,1.111287 
	C105.666595,1.111287 210.333282,1.111287 315.000000,1.108783 
	C315.000000,27.758413 315.000000,54.410549 314.783600,81.801773 
	C312.237122,84.223549 309.907013,85.906235 306.563110,88.321060 
	C310.345367,89.073730 312.672699,89.536865 315.000000,90.000000 
M94.210609,64.918312 
	C93.956688,65.949173 93.702766,66.980034 93.156906,68.587601 
	C92.967125,71.727234 92.984261,71.748772 95.931564,70.867188 
	C99.299721,70.252747 102.667885,69.638313 106.313431,68.875893 
	C106.313431,68.875893 106.627029,68.853638 107.440399,68.944572 
	C107.985023,68.968147 108.529640,68.991722 109.167038,69.788017 
	C110.485519,70.504524 111.791779,71.814209 113.124458,71.841682 
	C122.064270,72.025932 131.010483,71.992279 139.952286,71.864555 
	C141.009277,71.849449 142.052002,70.834221 143.670135,69.986885 
	C144.726700,69.287354 145.783249,68.587822 147.515457,67.949020 
	C148.013168,67.304108 148.510880,66.659203 149.284317,65.557808 
	C149.716873,65.257378 150.149414,64.956947 151.261795,64.851562 
	C152.447128,64.209167 153.632462,63.566772 155.602051,62.967670 
	C156.387375,62.980026 157.172699,62.992386 158.354843,63.473019 
	C158.922882,63.637146 159.490906,63.801270 160.304047,64.206802 
	C160.304047,64.206802 160.426285,64.528374 160.221695,65.256279 
	C160.442795,65.866043 160.572922,66.529968 160.898804,67.077354 
	C165.058609,74.065125 171.958984,71.815842 177.972656,71.691963 
	C179.634598,71.657722 181.914017,69.164070 182.712601,67.288872 
	C183.896759,64.508255 181.714279,62.998264 179.082779,62.693939 
	C176.637024,62.411095 174.152527,62.463314 171.689911,62.300777 
	C171.689911,62.300777 171.623627,62.288513 171.850128,61.555954 
	C171.642990,60.383968 171.435852,59.211979 171.195160,57.311378 
	C171.332855,56.598675 171.470566,55.885975 172.194626,54.857952 
	C172.516876,52.247520 172.839127,49.637093 173.130356,46.299728 
	C173.258636,45.586559 173.386917,44.873390 174.077103,43.946140 
	C174.751221,42.714058 175.425323,41.481976 176.983017,40.097984 
	C178.798233,40.081665 180.717575,40.427418 182.398468,39.944023 
	C183.980804,39.488972 185.311722,38.159668 187.380966,37.148098 
	C188.581802,38.102329 189.782654,39.056561 191.893433,40.088551 
	C194.937546,40.110847 197.981644,40.133141 201.387146,40.595684 
	C201.941071,39.732944 202.494995,38.870209 203.065765,37.254585 
	C203.119812,36.503544 203.173874,35.752506 203.656281,34.480576 
	C202.163345,33.681625 200.653564,32.169670 199.180313,32.204433 
	C191.957962,32.374851 184.724274,33.743767 177.819611,31.425421 
	C177.557480,29.316906 177.289337,27.160112 176.949753,24.135090 
	C175.876419,23.284679 174.882889,21.864546 173.713379,21.700735 
	C171.164444,21.343710 168.525879,21.626358 165.460327,21.249422 
	C162.444626,22.051928 162.510483,23.806589 164.033981,26.648319 
	C163.958771,27.074181 163.883575,27.500042 163.136520,28.108835 
	C162.705215,29.401760 162.273911,30.694683 161.057678,31.996418 
	C159.950165,32.492767 158.842651,32.989117 156.970139,33.677967 
	C146.639496,33.736618 136.308838,33.795269 125.590454,33.374886 
	C123.749519,34.951305 121.908585,36.527721 119.669113,38.533237 
	C118.911400,39.135887 118.153687,39.738541 116.652039,40.195290 
	C114.046242,41.678772 112.960007,39.915199 111.921242,37.243073 
	C111.960678,36.493240 112.000114,35.743408 112.544006,34.545052 
	C111.245575,33.730591 109.962723,32.240963 108.646187,32.210560 
	C99.682793,32.003586 90.710747,32.024689 81.746040,32.202206 
	C80.588013,32.225136 79.456184,33.570728 78.201332,34.129322 
	C78.201332,34.129322 78.258644,34.327805 77.571312,34.153080 
	C77.066261,34.799507 76.561218,35.445934 75.818504,36.331688 
	C75.818504,36.331688 75.494225,36.424431 74.773537,36.202419 
	C72.867584,38.157276 70.961632,40.112137 69.001831,42.000492 
	C69.001831,42.000492 69.067490,42.055519 68.280724,41.982059 
	C66.531677,41.648193 64.782631,41.314327 62.571579,40.708015 
	C62.282459,40.264748 61.993340,39.821484 61.872501,38.662468 
	C60.597374,37.430492 59.322247,36.198517 57.997066,34.995514 
	C57.997066,34.995514 58.035336,34.951469 57.973396,34.169273 
	C55.339745,31.819660 43.885952,31.043320 41.481922,33.118622 
	C41.239384,33.327995 41.438152,34.048569 41.292953,35.138821 
	C41.167400,35.748165 41.041851,36.357513 40.279671,37.080414 
	C40.070999,38.011314 39.862328,38.942211 39.653656,39.873112 
	C40.430874,39.942379 41.208088,40.011650 42.635468,40.069763 
	C43.064823,40.119232 43.494183,40.168701 44.161877,40.937572 
	C46.233772,41.130737 48.305668,41.323902 50.395905,41.607418 
	C50.395905,41.607418 50.476299,41.652554 50.202740,42.466721 
	C50.403870,44.298790 50.605000,46.130859 50.849792,48.696251 
	C50.701611,49.411407 50.553429,50.126568 49.810707,51.144600 
	C49.501556,53.755974 49.192402,56.367348 48.919571,59.706226 
	C48.771736,60.415066 48.623901,61.123905 47.620720,61.949760 
	C44.796440,62.011196 41.972286,62.117420 39.147861,62.125103 
	C32.471310,62.143261 32.220142,61.572754 33.341015,54.991470 
	C34.329243,49.189018 34.743496,43.288815 35.388927,36.826302 
	C35.486263,36.229961 35.583599,35.633617 36.327652,34.655514 
	C36.606678,32.114174 36.885704,29.572832 37.145031,26.157644 
	C37.145031,24.743042 37.145031,23.328440 37.145031,21.533768 
	C33.355389,21.533768 29.958557,21.533768 25.743441,21.288481 
	C25.351612,22.377588 24.959784,23.466696 24.591681,25.164890 
	C24.500019,25.765909 24.408356,26.366926 23.617794,27.294203 
	C23.342455,29.849680 23.067116,32.405155 22.838043,35.692944 
	C22.701262,36.410320 22.564480,37.127697 21.830727,38.146072 
	C21.508286,40.755932 21.185846,43.365791 20.904707,46.706200 
	C20.782146,47.424961 20.659584,48.143719 19.909576,49.126289 
	C19.585123,51.747311 19.260670,54.368336 18.973417,57.720341 
	C18.861227,58.441475 18.749035,59.162605 17.943863,60.156830 
	C17.713678,61.878208 17.483496,63.599583 17.253983,66.064400 
	C17.223175,67.300652 17.192368,68.536911 17.162180,70.606529 
	C17.470795,70.968552 17.776764,71.644775 18.088400,71.647400 
	C31.512714,71.760376 44.937756,71.845665 58.361427,71.751617 
	C58.875118,71.748024 59.376202,69.944939 59.906651,68.331039 
	C59.990395,67.907356 60.074142,67.483665 60.911503,66.845932 
	C61.103889,65.054779 61.296276,63.263622 61.444141,60.988647 
	C61.451916,60.660763 61.518223,60.345173 62.311722,59.618214 
	C62.680916,56.559109 63.050110,53.500004 63.401619,49.750271 
	C63.519627,48.837784 63.637634,47.925293 64.555565,47.022789 
	C64.932236,47.936882 65.561005,48.831650 65.632858,49.769104 
	C65.780342,51.693512 65.629486,53.640785 65.607376,56.354908 
	C65.413651,57.906956 65.219917,59.459003 64.325760,61.121414 
	C64.162186,62.736614 63.998615,64.351814 63.872768,66.777214 
	C63.920628,67.849876 63.968487,68.922546 63.511261,70.455177 
	C63.834682,70.923355 64.152565,71.795715 64.482346,71.800240 
	C71.605896,71.897881 78.731918,71.957458 85.853493,71.819298 
	C86.504433,71.806679 87.128479,70.407959 87.820198,69.300560 
	C87.820198,69.300560 88.030090,69.012245 88.759628,68.889183 
	C90.778320,64.470329 89.511604,62.396561 84.318596,62.180141 
	C81.624924,62.067886 78.995773,62.352604 78.026520,58.223705 
	C78.218063,57.198326 78.409615,56.172947 79.205284,54.862061 
	C79.520020,52.250916 79.834755,49.639767 80.094780,46.379017 
	C80.195732,45.959045 80.296684,45.539074 81.074997,44.930378 
	C84.619629,40.141476 89.748703,42.196575 94.204269,42.354290 
	C95.203575,42.389664 96.075500,46.023308 97.003159,48.730785 
	C97.114388,49.196732 97.225624,49.662674 97.129204,50.549210 
	C97.129204,50.549210 96.912285,50.965103 96.350838,50.969780 
	C96.340317,52.323750 96.329803,53.677715 96.267181,55.795925 
	C95.832191,57.529732 95.397202,59.263535 94.293404,61.087475 
	C94.271683,62.097561 94.249962,63.107643 94.210609,64.918312 
M246.141678,68.483009 
	C247.088715,69.054543 248.035736,69.626076 249.921799,70.213135 
	C258.042206,70.219261 266.162628,70.230621 274.283020,70.230194 
	C284.618713,70.229660 291.375671,64.303932 293.423157,53.642696 
	C293.690002,51.433987 293.956848,49.225277 294.242065,46.258553 
	C294.382111,45.259632 294.522156,44.260715 295.265259,42.910423 
	C295.333008,41.811749 295.400757,40.713074 295.535370,39.075279 
	C295.608429,38.720928 295.681488,38.366573 296.400177,37.592876 
	C297.657928,34.057930 296.647522,32.188343 292.658997,32.212788 
	C283.858948,32.266720 275.035950,31.881582 266.272125,32.447361 
	C263.762512,32.609375 261.423584,35.414619 258.683990,37.450653 
	C258.238739,37.766293 257.793488,38.081928 256.669067,38.216290 
	C254.876068,39.515564 253.083069,40.814838 250.629272,42.049339 
	C250.408447,42.034256 250.187637,42.019173 249.960510,41.106339 
	C249.787292,40.235481 249.614075,39.364624 249.453262,37.831715 
	C249.286407,36.582420 249.119553,35.333122 248.869904,33.269016 
	C248.363434,32.905575 247.859650,32.229378 247.350067,32.224983 
	C237.617050,32.141018 227.856812,31.739489 218.168106,32.388062 
	C215.683716,32.554367 213.424683,36.087280 211.000000,38.000610 
	C211.000000,38.000610 211.066696,38.069016 210.335754,37.974689 
	C207.310349,39.369278 203.745300,40.355480 205.034531,45.730980 
	C204.925369,46.449394 204.816193,47.167805 204.092621,48.048096 
	C203.557724,49.077156 203.022827,50.106216 202.496414,51.118961 
	C202.037903,50.451603 201.541367,49.728897 200.987473,48.331333 
	C201.021225,47.881973 201.054993,47.432617 201.548340,46.732021 
	C201.394821,46.260590 201.241302,45.789154 201.087784,45.317715 
	C200.734680,45.493481 200.381592,45.669250 199.115631,45.852226 
	C196.070343,45.864014 193.025055,45.875797 189.601761,45.422314 
	C189.098022,46.951813 188.594284,48.481312 188.116516,50.664894 
	C188.039886,51.093307 187.963242,51.521725 187.128525,52.156635 
	C186.939499,53.943138 186.750488,55.729637 186.555344,58.213039 
	C186.440170,59.134594 186.324982,60.056145 185.534149,61.382832 
	C181.653961,68.575165 183.473846,71.858131 191.254303,71.946320 
	C195.609482,71.995674 199.817368,71.204811 204.342804,71.581657 
	C216.233521,72.571823 228.262070,71.976456 240.233124,71.817711 
	C241.365814,71.802689 242.480255,70.412399 243.822342,70.029999 
	C243.822342,70.029999 243.625793,69.648918 244.315872,69.572365 
	C245.016525,68.997177 245.717163,68.421989 246.141678,68.483009 
z"/>
<path fill="#53739A" opacity="1.000000" stroke="none" 
	d="
M315.000000,89.555832 
	C312.672699,89.536865 310.345367,89.073730 306.563110,88.321060 
	C309.907013,85.906235 312.237122,84.223549 314.783600,82.270432 
	C315.000000,84.370560 315.000000,86.741112 315.000000,89.555832 
z"/>
<path fill="#2B5283" opacity="1.000000" stroke="none" 
	d="
M43.923538,40.218166 
	C43.494183,40.168701 43.064823,40.119232 42.205383,39.761753 
	C41.488968,38.624783 41.202633,37.795818 40.916302,36.966858 
	C41.041851,36.357513 41.167400,35.748165 41.793098,34.773132 
	C47.540611,34.588787 52.787971,34.770126 58.035336,34.951469 
	C58.035336,34.951469 57.997066,34.995514 58.020115,35.317188 
	C59.263515,36.885315 60.483871,38.131763 61.704224,39.378216 
	C61.993340,39.821484 62.282459,40.264748 62.786270,41.170174 
	C63.252518,43.425819 63.504082,45.219315 63.755646,47.012806 
	C63.637634,47.925293 63.519627,48.837784 63.130302,50.330994 
	C62.453674,53.955105 62.048367,56.998493 61.643059,60.041885 
	C61.518223,60.345173 61.451916,60.660763 61.168667,61.450790 
	C60.648090,63.628620 60.402988,65.344299 60.157890,67.059982 
	C60.074142,67.483665 59.990395,67.907356 59.518299,68.819687 
	C58.180115,69.524681 57.230003,69.930237 56.280491,69.928841 
	C43.240799,69.909752 30.201189,69.834564 17.161560,69.773163 
	C17.192368,68.536911 17.223175,67.300652 17.584171,65.521614 
	C18.155188,63.280464 18.396015,61.582104 18.636845,59.883739 
	C18.749035,59.162605 18.861227,58.441475 19.234753,57.108665 
	C19.843065,53.952152 20.190044,51.407318 20.537024,48.862480 
	C20.659584,48.143719 20.782146,47.424961 21.176809,46.107231 
	C21.775175,42.953869 22.101437,40.399471 22.427698,37.845074 
	C22.564480,37.127697 22.701262,36.410320 23.113041,35.115074 
	C23.697590,32.014122 24.007143,29.491034 24.316692,26.967945 
	C24.408356,26.366926 24.500019,25.765909 24.837086,24.692442 
	C25.575567,23.324585 26.068645,22.429176 26.561726,21.533768 
	C29.958557,21.533768 33.355389,21.533768 37.145031,21.533768 
	C37.145031,23.328440 37.145031,24.743042 36.847904,26.796791 
	C36.260830,29.969717 35.970886,32.503498 35.680939,35.037277 
	C35.583599,35.633617 35.486263,36.229961 35.102901,37.363403 
	C33.294361,45.716705 31.651030,53.513924 30.415602,61.375244 
	C30.274998,62.269936 32.341740,64.343758 33.526012,64.462357 
	C37.482891,64.858604 41.519127,64.805603 45.490131,64.488525 
	C46.549377,64.403946 47.484150,62.760506 48.476067,61.832745 
	C48.623901,61.123905 48.771736,60.415066 49.204681,59.119053 
	C49.794941,55.968494 50.100094,53.405109 50.405243,50.841724 
	C50.553429,50.126568 50.701611,49.411407 51.139526,48.114334 
	C51.111607,45.572464 50.793953,43.612507 50.476299,41.652554 
	C50.476299,41.652554 50.395905,41.607418 50.278625,41.183510 
	C48.082077,40.579124 46.002808,40.398647 43.923538,40.218166 
z"/>
<path fill="#2E5584" opacity="1.000000" stroke="none" 
	d="
M248.952698,34.083824 
	C249.119553,35.333122 249.286407,36.582420 249.149933,38.379261 
	C248.609818,40.636761 248.373047,42.346714 247.962341,44.412468 
	C244.197464,45.149635 240.606491,45.531002 236.905609,45.609180 
	C235.074158,44.041622 238.914413,39.623898 233.462585,40.152641 
	C229.379562,40.157017 225.745895,40.228455 221.755768,40.220726 
	C216.274414,42.708241 216.507965,47.485909 216.342957,52.517639 
	C216.151093,53.927368 216.063858,54.961742 215.694061,56.234795 
	C215.025146,58.083664 214.220901,59.742889 214.402008,61.286510 
	C214.519272,62.285809 216.077148,63.116074 217.452148,64.074600 
	C222.260330,64.048569 226.605865,63.970005 231.289551,63.948761 
	C231.953766,63.292725 232.279831,62.579369 232.703232,61.462502 
	C231.785156,60.208912 230.873566,58.843876 229.733124,58.613968 
	C227.215652,58.106461 224.582916,58.170734 222.037811,57.602539 
	C221.920532,56.423790 221.762634,55.644226 221.714050,54.566051 
	C221.915237,53.853813 222.007095,53.440178 222.400696,53.025948 
	C223.327606,52.573978 223.952759,52.122612 225.002258,51.701210 
	C231.036179,51.820107 236.647781,52.035454 242.254623,51.947815 
	C245.333313,51.899693 246.517502,53.030571 246.007004,56.062080 
	C245.789001,57.356705 245.780960,58.686684 245.379303,60.212143 
	C244.595978,63.498768 244.110886,66.573845 243.625793,69.648918 
	C243.625793,69.648918 243.822342,70.029999 243.273407,69.856514 
	C229.224014,69.683029 215.723557,69.683029 202.246948,69.683029 
	C201.842712,67.702454 201.521057,66.126488 201.359314,64.298264 
	C201.528519,63.847118 201.537842,63.648228 201.869308,63.286171 
	C203.029968,58.044083 203.868500,52.965153 204.707031,47.886219 
	C204.816193,47.167805 204.925369,46.449394 205.286682,45.169067 
	C207.381439,42.427773 209.224075,40.248394 211.066696,38.069016 
	C211.066696,38.069016 211.000000,38.000610 211.388885,38.022621 
	C215.020172,34.677746 219.004120,33.971550 223.553711,34.102997 
	C232.012802,34.347385 240.485596,34.116722 248.952698,34.083824 
z"/>
<path fill="#315786" opacity="1.000000" stroke="none" 
	d="
M146.839798,67.888290 
	C145.783249,68.587822 144.726700,69.287354 142.921173,70.022522 
	C134.394913,70.037308 126.615891,70.103889 118.841217,69.950470 
	C115.929642,69.893028 113.028175,69.323471 110.166069,68.605125 
	C110.313774,65.005829 112.136436,64.123566 115.129326,64.137367 
	C122.737762,64.172462 130.347290,63.972000 138.277679,63.922150 
	C139.176056,63.391861 139.753128,62.805264 140.650909,62.020271 
	C143.185913,57.989605 140.135330,58.558220 138.109146,58.512131 
	C129.695847,58.320728 121.280701,58.210983 112.909927,57.657677 
	C112.768097,56.445454 112.582581,55.646809 112.553978,54.559696 
	C112.763603,53.839718 112.816315,53.408215 113.167046,52.720627 
	C114.775368,48.423428 116.085678,44.382313 117.395981,40.341194 
	C118.153687,39.738541 118.911400,39.135887 120.210602,38.303955 
	C122.494133,36.667751 124.236160,35.260838 125.978188,33.853920 
	C136.308838,33.795269 146.639496,33.736618 157.487747,33.969048 
	C158.063797,36.184074 158.122223,38.108021 157.885193,40.226135 
	C157.505981,41.322067 157.422226,42.223827 157.223938,43.420856 
	C156.723358,44.445438 156.337311,45.174747 155.507111,45.834743 
	C154.240768,45.754387 153.418533,45.745892 152.596390,45.731873 
	C149.048233,45.671356 144.639771,46.947304 144.969147,40.794201 
	C144.976974,40.647881 143.623795,40.428699 142.456863,40.173927 
	C138.378159,40.180084 134.748001,40.255817 130.777954,40.255386 
	C129.331833,41.469788 128.225616,42.760349 127.000671,44.406723 
	C126.744659,46.000069 126.607346,47.237610 126.214508,48.619644 
	C126.245056,49.596184 126.531128,50.428223 127.275024,51.425888 
	C136.294159,51.606174 144.855469,51.620831 153.567505,51.922974 
	C154.228302,53.169525 154.738419,54.128586 155.147888,55.440758 
	C155.004486,56.524960 154.961716,57.256039 154.688385,58.226398 
	C153.165878,60.529289 151.873917,62.592907 150.581955,64.656525 
	C150.149414,64.956947 149.716873,65.257378 148.825348,65.786972 
	C147.857513,66.640182 147.348663,67.264236 146.839798,67.888290 
z"/>
<path fill="#285081" opacity="1.000000" stroke="none" 
	d="
M64.016342,69.995209 
	C63.968487,68.922546 63.920628,67.849876 64.167145,66.155045 
	C64.649750,64.025597 64.837975,62.518322 65.026192,61.011051 
	C65.219917,59.459003 65.413651,57.906956 65.897659,55.737411 
	C67.147797,50.765118 68.107643,46.410316 69.067490,42.055519 
	C69.067490,42.055519 69.001831,42.000492 69.367279,42.006233 
	C71.653229,40.149460 73.573730,38.286945 75.494225,36.424431 
	C75.494225,36.424431 75.818504,36.331688 76.245316,36.207077 
	C77.200974,35.497578 77.729805,34.912693 78.258644,34.327805 
	C78.258644,34.327805 78.201332,34.129322 78.701340,34.236824 
	C83.362930,34.301922 87.527260,34.144096 91.685455,34.243301 
	C98.472260,34.405220 105.255058,34.734760 112.039551,34.993576 
	C112.000114,35.743408 111.960678,36.493240 111.673729,37.889343 
	C110.843468,42.693584 110.260727,46.851555 109.589676,51.236473 
	C109.406807,51.779850 109.380150,52.101898 109.154373,52.605888 
	C108.810844,53.571308 108.734344,54.360405 108.523361,55.541145 
	C108.131683,57.571274 107.874489,59.209751 107.346222,60.898598 
	C107.061737,61.634033 107.048332,62.319103 107.006287,63.423744 
	C106.860779,65.513428 106.743904,67.183533 106.627029,68.853638 
	C106.627029,68.853638 106.313431,68.875893 105.706284,68.942505 
	C101.620766,69.100380 98.142403,69.191643 94.557724,69.084061 
	C94.451416,68.885231 94.363144,68.443016 94.638397,68.178284 
	C94.990242,66.612167 95.066833,65.310783 95.135925,63.629143 
	C95.073013,62.498367 95.017609,61.747856 94.962204,60.997341 
	C95.397202,59.263535 95.832191,57.529732 96.544891,55.159328 
	C96.852501,53.336857 96.882393,52.150978 96.912285,50.965103 
	C96.912285,50.965103 97.129204,50.549210 97.499771,50.298435 
	C97.931824,49.368702 97.993309,48.689747 98.104019,47.606018 
	C99.680496,39.809624 99.680496,39.806587 92.199684,39.802662 
	C90.062538,39.801540 87.843681,39.463165 85.808517,39.924511 
	C83.151039,40.526920 79.581276,40.691845 80.397644,45.119106 
	C80.296684,45.539074 80.195732,45.959045 79.828415,46.942017 
	C79.241753,50.052536 78.921455,52.600052 78.601158,55.147568 
	C78.409615,56.172947 78.218063,57.198326 77.720444,58.843685 
	C75.297935,64.978111 79.176346,64.706680 82.541428,64.601974 
	C85.769188,64.501541 88.562439,64.589836 88.030090,69.012245 
	C88.030090,69.012245 87.820198,69.300560 87.345016,69.547813 
	C79.251999,69.861778 71.634171,69.928490 64.016342,69.995209 
z"/>
<path fill="#254D7F" opacity="1.000000" stroke="none" 
	d="
M257.348236,38.397560 
	C257.793488,38.081928 258.238739,37.766293 259.238525,37.206421 
	C261.893127,36.200294 263.975616,34.843327 266.096252,34.780895 
	C274.663971,34.528656 283.247192,34.818947 291.816376,34.592335 
	C294.593384,34.518890 295.510223,35.640545 295.754517,38.012222 
	C295.681488,38.366573 295.608429,38.720928 295.196869,39.514969 
	C294.792969,41.057037 294.727600,42.159420 294.662170,43.261795 
	C294.522156,44.260715 294.382111,45.259632 293.942169,46.840416 
	C293.360474,49.616982 293.078674,51.811687 292.796875,54.006393 
	C291.375671,64.303932 284.618713,70.229660 274.283020,70.230194 
	C266.162628,70.230621 258.042206,70.219261 249.337982,69.854813 
	C248.870041,67.006950 248.985901,64.517410 249.197174,61.707680 
	C249.243835,60.951645 249.195099,60.515797 249.234238,59.772762 
	C249.297562,59.253990 249.272995,59.042404 249.344238,58.705009 
	C249.440033,58.579197 249.332642,58.281723 249.466949,57.973358 
	C249.692642,56.773384 249.784042,55.881771 250.170441,54.761269 
	C250.760605,52.268139 251.055771,50.003899 251.435944,47.370388 
	C251.648743,45.997486 251.776535,44.993858 252.219955,43.878384 
	C254.139816,41.976875 255.744019,40.187214 257.348236,38.397560 
M280.256104,58.869698 
	C280.529907,56.916111 280.803680,54.962524 281.093445,52.199047 
	C281.278076,50.868080 281.462708,49.537113 282.239258,47.869202 
	C282.769501,46.051945 283.656464,44.237225 283.669403,42.416294 
	C283.675262,41.589069 281.950073,40.749538 280.088776,39.970036 
	C276.389954,39.958965 272.691132,39.947899 268.689453,39.494541 
	C268.073547,39.898499 267.457642,40.302452 266.469391,41.260303 
	C265.752899,42.100979 265.036377,42.941658 263.755524,44.077953 
	C263.465668,46.047428 263.175781,48.016899 262.885101,50.796959 
	C262.689026,52.125454 262.492920,53.453945 261.706055,55.115334 
	C260.788177,58.131584 258.212189,61.153618 262.701721,64.197632 
	C265.956146,64.206139 269.213226,64.135178 272.464294,64.244080 
	C276.190063,64.368889 278.743805,62.963360 280.256104,58.869698 
z"/>
<path fill="#2B5282" opacity="1.000000" stroke="none" 
	d="
M165.923950,21.647606 
	C168.525879,21.626358 171.164444,21.343710 173.713379,21.700735 
	C174.882889,21.864546 175.876419,23.284679 176.698639,24.814938 
	C174.002777,33.884518 174.494156,34.921532 182.623871,34.345673 
	C183.926041,34.253437 185.373138,36.207119 186.753250,37.214989 
	C185.311722,38.159668 183.980804,39.488972 182.398468,39.944023 
	C180.717575,40.427418 178.798233,40.081665 176.176514,40.060349 
	C174.751755,41.401886 174.133484,42.781055 173.515213,44.160225 
	C173.386917,44.873390 173.258636,45.586559 172.844513,46.890083 
	C172.241867,50.044716 171.925064,52.608994 171.608261,55.173271 
	C171.470566,55.885975 171.332855,56.598675 170.920013,57.848930 
	C170.971130,59.687160 171.297379,60.987839 171.623627,62.288513 
	C171.623627,62.288513 171.689911,62.300777 171.754379,62.704956 
	C173.652802,63.633415 175.543488,64.017471 177.301743,64.728859 
	C178.578613,65.245483 179.680267,66.195168 180.860046,66.951767 
	C179.672745,67.949043 178.568848,69.673164 177.284027,69.820602 
	C170.966034,70.545578 164.717255,70.486526 160.426285,64.528374 
	C160.426285,64.528374 160.304047,64.206802 160.188934,63.771622 
	C159.490387,62.770741 158.906952,62.205036 158.346298,61.273670 
	C158.526245,58.928200 158.683380,56.948387 159.149796,54.765217 
	C159.596771,53.357292 159.734467,52.152725 159.976685,50.557426 
	C160.726929,46.112137 161.372650,42.057575 162.246704,37.703720 
	C162.919495,34.244919 163.363937,31.085413 163.808380,27.925905 
	C163.883575,27.500042 163.958771,27.074181 164.265167,26.095139 
	C164.972198,24.243839 165.448074,22.945721 165.923950,21.647606 
z"/>
<path fill="#F9FAFC" opacity="1.000000" stroke="none" 
	d="
M251.904312,43.990227 
	C251.776535,44.993858 251.648743,45.997486 251.159698,47.509949 
	C250.490768,50.342575 250.183105,52.666367 249.875443,54.990158 
	C249.784042,55.881771 249.692642,56.773384 249.207520,57.897240 
	C248.958679,58.363266 249.103561,58.597046 249.248444,58.830826 
	C249.272995,59.042404 249.297562,59.253990 248.801804,59.739464 
	C247.413498,60.009098 246.545486,60.004848 245.677490,60.000595 
	C245.780960,58.686684 245.789001,57.356705 246.007004,56.062080 
	C246.517502,53.030571 245.333313,51.899693 242.254623,51.947815 
	C236.647781,52.035454 231.036179,51.820107 224.669601,51.501904 
	C223.171921,51.347237 222.431229,51.421844 221.690521,51.496452 
	C221.826675,52.006485 221.962814,52.516514 222.098969,53.026543 
	C222.007095,53.440178 221.915237,53.853813 221.383560,54.632534 
	C221.294907,55.998993 221.646057,57.000359 221.997208,58.001728 
	C224.582916,58.170734 227.215652,58.106461 229.733124,58.613968 
	C230.873566,58.843876 231.785156,60.208912 232.420975,61.529358 
	C231.678040,62.630299 231.314713,63.260868 230.951401,63.891441 
	C226.605865,63.970005 222.260330,64.048569 217.417633,63.715023 
	C216.605865,60.867317 216.291245,58.431721 215.976624,55.996120 
	C216.063858,54.961742 216.151093,53.927368 216.664215,52.386642 
	C218.764160,48.020161 220.438202,44.160019 222.112244,40.299885 
	C225.745895,40.228455 229.379562,40.157017 233.487366,40.541588 
	C234.295364,46.080879 234.295364,46.080879 237.015533,45.912361 
	C240.606491,45.531002 244.197464,45.149635 248.264679,44.363960 
	C249.149567,43.307796 249.558197,42.655941 249.966827,42.004089 
	C250.187637,42.019173 250.408447,42.034256 250.928864,42.350853 
	C251.453751,43.098320 251.679031,43.544273 251.904312,43.990227 
z"/>
<path fill="#FAFBFC" opacity="1.000000" stroke="none" 
	d="
M162.018372,38.003017 
	C161.372650,42.057575 160.726929,46.112137 159.649948,50.614365 
	C159.092636,52.364208 158.966583,53.666393 158.840515,54.968575 
	C158.683380,56.948387 158.526245,58.928200 158.222961,61.606628 
	C158.037247,62.538406 157.997635,62.771572 157.958023,63.004742 
	C157.172699,62.992386 156.387375,62.980026 155.264679,62.605095 
	C154.924515,60.824055 154.921738,59.405586 154.918945,57.987122 
	C154.961716,57.256039 155.004486,56.524960 155.479767,55.361862 
	C157.189072,51.890312 156.837952,51.426777 153.416794,51.635487 
	C144.855469,51.620831 136.294159,51.606174 127.329933,50.950993 
	C126.774704,49.698692 126.622368,49.086922 126.470039,48.475147 
	C126.607346,47.237610 126.744659,46.000069 127.323494,44.373810 
	C128.882629,42.767239 130.000244,41.549393 131.117859,40.331551 
	C134.748001,40.255817 138.378159,40.180084 142.485504,40.573486 
	C143.154984,43.636467 142.686005,46.933201 146.234879,47.347832 
	C149.471512,47.725983 153.258209,49.857906 155.951263,45.904060 
	C156.337311,45.174747 156.723358,44.445438 157.517944,43.353420 
	C158.011200,42.004463 158.095932,41.018215 158.180664,40.031967 
	C158.122223,38.108021 158.063797,36.184074 157.870239,33.872795 
	C158.842651,32.989117 159.950165,32.492767 161.458038,32.356018 
	C161.911743,34.478088 161.965057,36.240551 162.018372,38.003017 
z"/>
<path fill="#2B5283" opacity="1.000000" stroke="none" 
	d="
M187.886597,51.950138 
	C187.963242,51.521725 188.039886,51.093307 188.332977,50.108803 
	C189.026215,48.331001 189.502991,47.109291 189.979767,45.887581 
	C193.025055,45.875797 196.070343,45.864014 199.655243,46.114178 
	C200.492813,46.578506 200.790787,46.780884 201.088745,46.983257 
	C201.054993,47.432617 201.021225,47.881973 200.711349,48.901489 
	C199.364716,55.126732 198.384415,60.801590 197.153091,66.421440 
	C196.883514,67.651756 195.829529,69.542351 194.947235,69.655907 
	C191.849808,70.054543 188.669693,69.810631 185.670288,69.810631 
	C185.895294,66.126869 186.052551,63.552284 186.209793,60.977699 
	C186.324982,60.056145 186.440170,59.134594 186.849243,57.640221 
	C187.390961,55.361649 187.638779,53.655891 187.886597,51.950138 
z"/>
<path fill="#BDC9D8" opacity="1.000000" stroke="none" 
	d="
M185.871979,61.180267 
	C186.052551,63.552284 185.895294,66.126869 185.670288,69.810631 
	C188.669693,69.810631 191.849808,70.054543 194.947235,69.655907 
	C195.829529,69.542351 196.883514,67.651756 197.153091,66.421440 
	C198.384415,60.801590 199.364716,55.126732 200.740021,49.238914 
	C201.541367,49.728897 202.037903,50.451603 202.496414,51.118961 
	C203.022827,50.106216 203.557724,49.077156 204.399826,47.967155 
	C203.868500,52.965153 203.029968,58.044083 201.703857,62.919746 
	C201.079453,61.764534 200.942657,60.812584 200.805862,59.860634 
	C200.492188,59.938835 200.178528,60.017040 199.864868,60.095242 
	C200.309708,61.580334 200.754547,63.065426 201.199402,64.550514 
	C201.521057,66.126488 201.842712,67.702454 202.246948,69.683029 
	C215.723557,69.683029 229.224014,69.683029 243.163818,69.671814 
	C242.480255,70.412399 241.365814,71.802689 240.233124,71.817711 
	C228.262070,71.976456 216.233521,72.571823 204.342804,71.581657 
	C199.817368,71.204811 195.609482,71.995674 191.254303,71.946320 
	C183.473846,71.858131 181.653961,68.575165 185.871979,61.180267 
M201.488266,54.654556 
	C201.488266,54.654556 201.598724,54.444218 201.598724,54.444218 
	C201.598724,54.444218 201.374786,54.480579 201.488266,54.654556 
z"/>
<path fill="#F0F3F6" opacity="1.000000" stroke="none" 
	d="
M107.617310,60.848228 
	C107.874489,59.209751 108.131683,57.571274 108.818100,55.392590 
	C109.305359,54.044777 109.363373,53.237171 109.421387,52.429565 
	C109.380150,52.101898 109.406807,51.779850 109.924210,51.260582 
	C111.187714,51.697395 112.028374,52.337051 112.869026,52.976707 
	C112.816315,53.408215 112.763603,53.839718 112.284882,54.679237 
	C112.194649,56.081921 112.530441,57.076591 112.866234,58.071262 
	C121.280701,58.210983 129.695847,58.320728 138.109146,58.512131 
	C140.135330,58.558220 143.185913,57.989605 140.311661,61.967514 
	C139.086594,62.697372 138.521484,63.281601 137.956375,63.865829 
	C130.347290,63.972000 122.737762,64.172462 115.129326,64.137367 
	C112.136436,64.123566 110.313774,65.005829 109.903931,68.606071 
	C109.423317,68.997963 109.248795,69.006630 109.074265,69.015305 
	C108.529640,68.991722 107.985023,68.968147 107.033714,68.899109 
	C106.743904,67.183533 106.860779,65.513428 107.285408,63.260365 
	C107.601212,62.067680 107.609261,61.457954 107.617310,60.848228 
z"/>
<path fill="#A4B5CA" opacity="1.000000" stroke="none" 
	d="
M296.077332,37.802547 
	C295.510223,35.640545 294.593384,34.518890 291.816376,34.592335 
	C283.247192,34.818947 274.663971,34.528656 266.096252,34.780895 
	C263.975616,34.843327 261.893127,36.200294 259.399719,36.985031 
	C261.423584,35.414619 263.762512,32.609375 266.272125,32.447361 
	C275.035950,31.881582 283.858948,32.266720 292.658997,32.212788 
	C296.647522,32.188343 297.657928,34.057930 296.077332,37.802547 
z"/>
<path fill="#C2CEDB" opacity="1.000000" stroke="none" 
	d="
M48.048393,61.891251 
	C47.484150,62.760506 46.549377,64.403946 45.490131,64.488525 
	C41.519127,64.805603 37.482891,64.858604 33.526012,64.462357 
	C32.341740,64.343758 30.274998,62.269936 30.415602,61.375244 
	C31.651030,53.513924 33.294361,45.716705 35.114037,37.666138 
	C34.743496,43.288815 34.329243,49.189018 33.341015,54.991470 
	C32.220142,61.572754 32.471310,62.143261 39.147861,62.125103 
	C41.972286,62.117420 44.796440,62.011196 48.048393,61.891251 
z"/>
<path fill="#C0CCDA" opacity="1.000000" stroke="none" 
	d="
M187.067108,37.181545 
	C185.373138,36.207119 183.926041,34.253437 182.623871,34.345673 
	C174.494156,34.921532 174.002777,33.884518 176.734344,25.249052 
	C177.289337,27.160112 177.557480,29.316906 177.819611,31.425421 
	C184.724274,33.743767 191.957962,32.374851 199.180313,32.204433 
	C200.653564,32.169670 202.163345,33.681625 203.051147,34.574413 
	C200.496979,34.469719 198.544189,34.302158 196.599655,34.066452 
	C192.025574,33.512009 190.059952,35.387985 190.983490,40.010792 
	C189.782654,39.056561 188.581802,38.102329 187.067108,37.181545 
z"/>
<path fill="#C2CEDB" opacity="1.000000" stroke="none" 
	d="
M17.161869,70.189850 
	C30.201189,69.834564 43.240799,69.909752 56.280491,69.928841 
	C57.230003,69.930237 58.180115,69.524681 59.506554,69.144363 
	C59.376202,69.944939 58.875118,71.748024 58.361427,71.751617 
	C44.937756,71.845665 31.512714,71.760376 18.088400,71.647400 
	C17.776764,71.644775 17.470795,70.968552 17.161869,70.189850 
z"/>
<path fill="#BECAD9" opacity="1.000000" stroke="none" 
	d="
M160.323990,64.892326 
	C164.717255,70.486526 170.966034,70.545578 177.284027,69.820602 
	C178.568848,69.673164 179.672745,67.949043 180.860046,66.951767 
	C179.680267,66.195168 178.578613,65.245483 177.301743,64.728859 
	C175.543488,64.017471 173.652802,63.633415 171.751968,62.738571 
	C174.152527,62.463314 176.637024,62.411095 179.082779,62.693939 
	C181.714279,62.998264 183.896759,64.508255 182.712601,67.288872 
	C181.914017,69.164070 179.634598,71.657722 177.972656,71.691963 
	C171.958984,71.815842 165.058609,74.065125 160.898804,67.077354 
	C160.572922,66.529968 160.442795,65.866043 160.323990,64.892326 
z"/>
<path fill="#BDC9D8" opacity="1.000000" stroke="none" 
	d="
M248.911301,33.676422 
	C240.485596,34.116722 232.012802,34.347385 223.553711,34.102997 
	C219.004120,33.971550 215.020172,34.677746 211.419937,38.059082 
	C213.424683,36.087280 215.683716,32.554367 218.168106,32.388062 
	C227.856812,31.739489 237.617050,32.141018 247.350067,32.224983 
	C247.859650,32.229378 248.363434,32.905575 248.911301,33.676422 
z"/>
<path fill="#BCC8D7" opacity="1.000000" stroke="none" 
	d="
M112.291779,34.769314 
	C105.255058,34.734760 98.472260,34.405220 91.685455,34.243301 
	C87.527260,34.144096 83.362930,34.301922 78.756790,34.323975 
	C79.456184,33.570728 80.588013,32.225136 81.746040,32.202206 
	C90.710747,32.024689 99.682793,32.003586 108.646187,32.210560 
	C109.962723,32.240963 111.245575,33.730591 112.291779,34.769314 
z"/>
<path fill="#C2CEDB" opacity="1.000000" stroke="none" 
	d="
M109.120651,69.401657 
	C109.248795,69.006630 109.423317,68.997963 109.859970,68.988342 
	C113.028175,69.323471 115.929642,69.893028 118.841217,69.950470 
	C126.615891,70.103889 134.394913,70.037308 142.636765,70.170380 
	C142.052002,70.834221 141.009277,71.849449 139.952286,71.864555 
	C131.010483,71.992279 122.064270,72.025932 113.124458,71.841682 
	C111.791779,71.814209 110.485519,70.504524 109.120651,69.401657 
z"/>
<path fill="#436691" opacity="1.000000" stroke="none" 
	d="
M191.438461,40.049671 
	C190.059952,35.387985 192.025574,33.512009 196.599655,34.066452 
	C198.544189,34.302158 200.496979,34.469719 202.836975,34.834858 
	C203.173874,35.752506 203.119812,36.503544 202.780334,37.756268 
	C202.005203,38.890446 201.515472,39.522942 201.025757,40.155437 
	C197.981644,40.133141 194.937546,40.110847 191.438461,40.049671 
z"/>
<path fill="#BCC8D7" opacity="1.000000" stroke="none" 
	d="
M113.167046,52.720627 
	C112.028374,52.337051 111.187714,51.697395 110.012527,51.033630 
	C110.260727,46.851555 110.843468,42.693584 111.686935,38.264671 
	C112.960007,39.915199 114.046242,41.678772 117.024010,40.268242 
	C116.085678,44.382313 114.775368,48.423428 113.167046,52.720627 
z"/>
<path fill="#C5D0DD" opacity="1.000000" stroke="none" 
	d="
M80.736320,45.024742 
	C79.581276,40.691845 83.151039,40.526920 85.808517,39.924511 
	C87.843681,39.463165 90.062538,39.801540 92.199684,39.802662 
	C99.680496,39.806587 99.680496,39.809624 97.841911,47.591011 
	C97.355736,47.987316 97.180901,47.993870 97.006065,48.000420 
	C96.075500,46.023308 95.203575,42.389664 94.204269,42.354290 
	C89.748703,42.196575 84.619629,40.141476 80.736320,45.024742 
z"/>
<path fill="#C5D0DD" opacity="1.000000" stroke="none" 
	d="
M63.763802,70.225189 
	C71.634171,69.928490 79.251999,69.861778 87.317429,69.723984 
	C87.128479,70.407959 86.504433,71.806679 85.853493,71.819298 
	C78.731918,71.957458 71.605896,71.897881 64.482346,71.800240 
	C64.152565,71.795715 63.834682,70.923355 63.763802,70.225189 
z"/>
<path fill="#C5D0DD" opacity="1.000000" stroke="none" 
	d="
M88.394859,68.950714 
	C88.562439,64.589836 85.769188,64.501541 82.541428,64.601974 
	C79.176346,64.706680 75.297935,64.978111 77.732559,59.236588 
	C78.995773,62.352604 81.624924,62.067886 84.318596,62.180141 
	C89.511604,62.396561 90.778320,64.470329 88.394859,68.950714 
z"/>
<path fill="#C2CEDB" opacity="1.000000" stroke="none" 
	d="
M68.674103,42.018791 
	C68.107643,46.410316 67.147797,50.765118 65.894699,55.349281 
	C65.629486,53.640785 65.780342,51.693512 65.632858,49.769104 
	C65.561005,48.831650 64.932236,47.936882 64.155602,47.017799 
	C63.504082,45.219315 63.252518,43.425819 63.017269,41.306396 
	C64.782631,41.314327 66.531677,41.648193 68.674103,42.018791 
z"/>
<path fill="#C2CEDB" opacity="1.000000" stroke="none" 
	d="
M58.004364,34.560371 
	C52.787971,34.770126 47.540611,34.588787 41.862682,34.469677 
	C41.438152,34.048569 41.239384,33.327995 41.481922,33.118622 
	C43.885952,31.043320 55.339745,31.819660 58.004364,34.560371 
z"/>
<path fill="#BDC9D8" opacity="1.000000" stroke="none" 
	d="
M245.379288,60.212147 
	C246.545486,60.004848 247.413498,60.009098 248.713928,60.046650 
	C249.195099,60.515797 249.243835,60.951645 248.885742,61.720947 
	C247.981506,62.617416 247.484116,63.180424 246.958069,64.188980 
	C246.952667,64.931259 246.975922,65.227997 247.033203,65.785995 
	C246.850754,66.647095 246.634277,67.246948 246.417801,67.846802 
	C245.717163,68.421989 245.016525,68.997177 243.970825,69.610641 
	C244.110886,66.573845 244.595978,63.498768 245.379288,60.212147 
z"/>
<path fill="#6C87A9" opacity="1.000000" stroke="none" 
	d="
M94.664032,69.282898 
	C98.142403,69.191643 101.620766,69.100380 105.567589,69.016495 
	C102.667885,69.638313 99.299721,70.252747 95.434921,70.621651 
	C94.846863,70.011703 94.755447,69.647301 94.664032,69.282898 
z"/>
<path fill="#C0CCDA" opacity="1.000000" stroke="none" 
	d="
M162.246704,37.703720 
	C161.965057,36.240551 161.911743,34.478088 161.850525,32.351616 
	C162.273911,30.694683 162.705215,29.401760 163.472458,28.017372 
	C163.363937,31.085413 162.919495,34.244919 162.246704,37.703720 
z"/>
<path fill="#BDC9D8" opacity="1.000000" stroke="none" 
	d="
M210.701233,38.021851 
	C209.224075,40.248394 207.381439,42.427773 205.278046,44.804733 
	C203.745300,40.355480 207.310349,39.369278 210.701233,38.021851 
z"/>
<path fill="#C2CEDB" opacity="1.000000" stroke="none" 
	d="
M23.967243,27.131073 
	C24.007143,29.491034 23.697590,32.014122 23.089905,34.748920 
	C23.067116,32.405155 23.342455,29.849680 23.967243,27.131073 
z"/>
<path fill="#BECAD9" opacity="1.000000" stroke="none" 
	d="
M171.901443,55.015610 
	C171.925064,52.608994 172.241867,50.044716 172.860016,47.253548 
	C172.839127,49.637093 172.516876,52.247520 171.901443,55.015610 
z"/>
<path fill="#C2CEDB" opacity="1.000000" stroke="none" 
	d="
M20.223301,48.994385 
	C20.190044,51.407318 19.843065,53.952152 19.216150,56.743172 
	C19.260670,54.368336 19.585123,51.747311 20.223301,48.994385 
z"/>
<path fill="#C2CEDB" opacity="1.000000" stroke="none" 
	d="
M50.107975,50.993164 
	C50.100094,53.405109 49.794941,55.968494 49.186523,58.755302 
	C49.192402,56.367348 49.501556,53.755974 50.107975,50.993164 
z"/>
<path fill="#C2CEDB" opacity="1.000000" stroke="none" 
	d="
M61.977390,59.830048 
	C62.048367,56.998493 62.453674,53.955105 63.139141,50.676308 
	C63.050110,53.500004 62.680916,56.559109 61.977390,59.830048 
z"/>
<path fill="#C2CEDB" opacity="1.000000" stroke="none" 
	d="
M22.129211,37.995575 
	C22.101437,40.399471 21.775175,42.953869 21.156158,45.741959 
	C21.185846,43.365791 21.508286,40.755932 22.129211,37.995575 
z"/>
<path fill="#A4B5CA" opacity="1.000000" stroke="none" 
	d="
M246.279739,68.164902 
	C246.634277,67.246948 246.850754,66.647095 247.204987,65.578568 
	C247.224060,64.654396 247.105392,64.198921 246.986725,63.743439 
	C247.484116,63.180424 247.981506,62.617416 248.790329,62.041134 
	C248.985901,64.517410 248.870041,67.006950 248.868469,69.847061 
	C248.035736,69.626076 247.088715,69.054543 246.279739,68.164902 
z"/>
<path fill="#C5D0DD" opacity="1.000000" stroke="none" 
	d="
M78.903221,55.004814 
	C78.921455,52.600052 79.241753,50.052536 79.855774,47.266823 
	C79.834755,49.639767 79.520020,52.250916 78.903221,55.004814 
z"/>
<path fill="#C2CEDB" opacity="1.000000" stroke="none" 
	d="
M36.004295,34.846397 
	C35.970886,32.503498 36.260830,29.969717 36.857754,27.233713 
	C36.885704,29.572832 36.606678,32.114174 36.004295,34.846397 
z"/>
<path fill="#C2CEDB" opacity="1.000000" stroke="none" 
	d="
M75.133881,36.313423 
	C73.573730,38.286945 71.653229,40.149460 69.394211,42.039486 
	C70.961632,40.112137 72.867584,38.157276 75.133881,36.313423 
z"/>
<path fill="#A4B5CA" opacity="1.000000" stroke="none" 
	d="
M252.219955,43.878380 
	C251.679031,43.544273 251.453751,43.098320 251.259262,42.383240 
	C253.083069,40.814838 254.876068,39.515564 257.008667,38.306923 
	C255.744019,40.187214 254.139816,41.976875 252.219955,43.878380 
z"/>
<path fill="#C2CEDB" opacity="1.000000" stroke="none" 
	d="
M154.688385,58.226398 
	C154.921738,59.405586 154.924515,60.824055 154.872559,62.583450 
	C153.632462,63.566772 152.447128,64.209167 150.921875,64.754044 
	C151.873917,62.592907 153.165878,60.529289 154.688385,58.226398 
z"/>
<path fill="#BCC8D7" opacity="1.000000" stroke="none" 
	d="
M125.784317,33.614403 
	C124.236160,35.260838 122.494133,36.667751 120.409882,38.089401 
	C121.908585,36.527721 123.749519,34.951305 125.784317,33.614403 
z"/>
<path fill="#A4B5CA" opacity="1.000000" stroke="none" 
	d="
M293.110016,53.824543 
	C293.078674,51.811687 293.360474,49.616982 293.932983,47.219421 
	C293.956848,49.225277 293.690002,51.433987 293.110016,53.824543 
z"/>
<path fill="#C2CEDB" opacity="1.000000" stroke="none" 
	d="
M50.339520,42.059639 
	C50.793953,43.612507 51.111607,45.572464 51.117699,47.747673 
	C50.605000,46.130859 50.403870,44.298790 50.339520,42.059639 
z"/>
<path fill="#C2CEDB" opacity="1.000000" stroke="none" 
	d="
M44.042709,40.577869 
	C46.002808,40.398647 48.082077,40.579124 50.269455,41.138336 
	C48.305668,41.323902 46.233772,41.130737 44.042709,40.577869 
z"/>
<path fill="#C0CCDA" opacity="1.000000" stroke="none" 
	d="
M165.692139,21.448513 
	C165.448074,22.945721 164.972198,24.243839 164.244568,25.770439 
	C162.510483,23.806589 162.444626,22.051928 165.692139,21.448513 
z"/>
<path fill="#C2CEDB" opacity="1.000000" stroke="none" 
	d="
M18.290354,60.020287 
	C18.396015,61.582104 18.155188,63.280464 17.583836,65.149895 
	C17.483496,63.599583 17.713678,61.878208 18.290354,60.020287 
z"/>
<path fill="#C5D0DD" opacity="1.000000" stroke="none" 
	d="
M64.675980,61.066231 
	C64.837975,62.518322 64.649750,64.025597 64.148285,65.749939 
	C63.998615,64.351814 64.162186,62.736614 64.675980,61.066231 
z"/>
<path fill="#C2CEDB" opacity="1.000000" stroke="none" 
	d="
M60.534698,66.952957 
	C60.402988,65.344299 60.648090,63.628620 61.190926,61.692703 
	C61.296276,63.263622 61.103889,65.054779 60.534698,66.952957 
z"/>
<path fill="#BDC9D8" opacity="1.000000" stroke="none" 
	d="
M249.963669,41.555214 
	C249.558197,42.655941 249.149567,43.307796 248.438599,44.008160 
	C248.373047,42.346714 248.609818,40.636761 249.143707,38.710289 
	C249.614075,39.364624 249.787292,40.235481 249.963669,41.555214 
z"/>
<path fill="#C2CEDB" opacity="1.000000" stroke="none" 
	d="
M61.788361,39.020340 
	C60.483871,38.131763 59.263515,36.885315 58.045143,35.302704 
	C59.322247,36.198517 60.597374,37.430492 61.788361,39.020340 
z"/>
<path fill="#BDC9D8" opacity="1.000000" stroke="none" 
	d="
M189.790771,45.654945 
	C189.502991,47.109291 189.026215,48.331001 188.319977,49.781761 
	C188.594284,48.481312 189.098022,46.951813 189.790771,45.654945 
z"/>
<path fill="#BDC9D8" opacity="1.000000" stroke="none" 
	d="
M187.507568,52.053387 
	C187.638779,53.655891 187.390961,55.361649 186.852295,57.291771 
	C186.750488,55.729637 186.939499,53.943138 187.507568,52.053387 
z"/>
<path fill="#BECAD9" opacity="1.000000" stroke="none" 
	d="
M173.796158,44.053185 
	C174.133484,42.781055 174.751755,41.401886 175.734726,40.136307 
	C175.425323,41.481976 174.751221,42.714058 173.796158,44.053185 
z"/>
<path fill="#C2CEDB" opacity="1.000000" stroke="none" 
	d="
M40.597984,37.023636 
	C41.202633,37.795818 41.488968,38.624783 41.880302,39.767334 
	C41.208088,40.011650 40.430874,39.942379 39.653656,39.873112 
	C39.862328,38.942211 40.070999,38.011314 40.597984,37.023636 
z"/>
<path fill="#F0F3F6" opacity="1.000000" stroke="none" 
	d="
M94.557724,69.084061 
	C94.755447,69.647301 94.846863,70.011703 94.983292,70.658714 
	C92.984261,71.748772 92.967125,71.727234 93.522629,68.426208 
	C94.046616,68.324219 94.204880,68.383621 94.363144,68.443016 
	C94.363144,68.443016 94.451416,68.885231 94.557724,69.084061 
z"/>
<path fill="#BECAD9" opacity="1.000000" stroke="none" 
	d="
M171.736877,61.922234 
	C171.297379,60.987839 170.971130,59.687160 170.936798,58.213238 
	C171.435852,59.211979 171.642990,60.383968 171.736877,61.922234 
z"/>
<path fill="#6C87A9" opacity="1.000000" stroke="none" 
	d="
M94.638397,68.178284 
	C94.204880,68.383621 94.046616,68.324219 93.668594,68.137856 
	C93.702766,66.980034 93.956688,65.949173 94.447586,64.488800 
	C94.684555,64.059280 95.143425,64.009399 95.143425,64.009399 
	C95.066833,65.310783 94.990242,66.612167 94.638397,68.178284 
z"/>
<path fill="#C0CCDA" opacity="1.000000" stroke="none" 
	d="
M201.206451,40.375561 
	C201.515472,39.522942 202.005203,38.890446 202.771912,38.132710 
	C202.494995,38.870209 201.941071,39.732944 201.206451,40.375561 
z"/>
<path fill="#C5D0DD" opacity="1.000000" stroke="none" 
	d="
M96.631561,50.967442 
	C96.882393,52.150978 96.852501,53.336857 96.570946,54.777206 
	C96.329803,53.677715 96.340317,52.323750 96.631561,50.967442 
z"/>
<path fill="#C2CEDB" opacity="1.000000" stroke="none" 
	d="
M26.152582,21.411125 
	C26.068645,22.429176 25.575567,23.324585 24.825222,24.387897 
	C24.959784,23.466696 25.351612,22.377588 26.152582,21.411125 
z"/>
<path fill="#A4B5CA" opacity="1.000000" stroke="none" 
	d="
M294.963745,43.086113 
	C294.727600,42.159420 294.792969,41.057037 295.163452,39.784527 
	C295.400757,40.713074 295.333008,41.811749 294.963745,43.086113 
z"/>
<path fill="#F0F3F6" opacity="1.000000" stroke="none" 
	d="
M95.135925,63.629143 
	C95.143425,64.009399 94.684555,64.059280 94.456398,64.088501 
	C94.249962,63.107643 94.271683,62.097561 94.627808,61.042408 
	C95.017609,61.747856 95.073013,62.498367 95.135925,63.629143 
z"/>
<path fill="#BDC9D8" opacity="1.000000" stroke="none" 
	d="
M201.318542,46.857639 
	C200.790787,46.780884 200.492813,46.578506 200.111664,46.110573 
	C200.381592,45.669250 200.734680,45.493481 201.087784,45.317719 
	C201.241302,45.789154 201.394821,46.260590 201.318542,46.857639 
z"/>
<path fill="#6C87A9" opacity="1.000000" stroke="none" 
	d="
M97.004608,48.365601 
	C97.180901,47.993870 97.355736,47.987316 97.792686,47.995777 
	C97.993309,48.689747 97.931824,49.368702 97.603592,50.088142 
	C97.225624,49.662674 97.114388,49.196732 97.004608,48.365601 
z"/>
<path fill="#BCC8D7" opacity="1.000000" stroke="none" 
	d="
M77.914978,34.240440 
	C77.729805,34.912693 77.200974,35.497578 76.364151,36.087414 
	C76.561218,35.445934 77.066261,34.799507 77.914978,34.240440 
z"/>
<path fill="#C2CEDB" opacity="1.000000" stroke="none" 
	d="
M147.177628,67.918655 
	C147.348663,67.264236 147.857513,66.640182 148.687469,66.015213 
	C148.510880,66.659203 148.013168,67.304108 147.177628,67.918655 
z"/>
<path fill="#BECAD9" opacity="1.000000" stroke="none" 
	d="
M158.156433,63.238880 
	C157.997635,62.771572 158.037247,62.538406 158.200165,61.972286 
	C158.906952,62.205036 159.490387,62.770741 160.066391,63.650921 
	C159.490906,63.801270 158.922882,63.637146 158.156433,63.238880 
z"/>
<path fill="#BDC9D8" opacity="1.000000" stroke="none" 
	d="
M221.755768,40.220722 
	C220.438202,44.160019 218.764160,48.020161 216.768845,52.011295 
	C216.507965,47.485909 216.274414,42.708241 221.755768,40.220722 
z"/>
<path fill="#BDC9D8" opacity="1.000000" stroke="none" 
	d="
M215.694061,56.234795 
	C216.291245,58.431721 216.605865,60.867317 216.954987,63.662498 
	C216.077148,63.116074 214.519272,62.285809 214.402008,61.286510 
	C214.220901,59.742889 215.025146,58.083664 215.694061,56.234795 
z"/>
<path fill="#BDC9D8" opacity="1.000000" stroke="none" 
	d="
M236.905609,45.609177 
	C234.295364,46.080879 234.295364,46.080879 233.936722,40.608643 
	C238.914413,39.623898 235.074158,44.041622 236.905609,45.609177 
z"/>
<path fill="#BDC9D8" opacity="1.000000" stroke="none" 
	d="
M222.400696,53.025948 
	C221.962814,52.516514 221.826675,52.006485 221.690521,51.496452 
	C222.431229,51.421844 223.171921,51.347237 224.245270,51.471935 
	C223.952759,52.122612 223.327606,52.573978 222.400696,53.025948 
z"/>
<path fill="#BDC9D8" opacity="1.000000" stroke="none" 
	d="
M222.037811,57.602539 
	C221.646057,57.000359 221.294907,55.998993 221.274246,54.931141 
	C221.762634,55.644226 221.920532,56.423790 222.037811,57.602539 
z"/>
<path fill="#FFFFFF" opacity="1.000000" stroke="none" 
	d="
M201.359299,64.298264 
	C200.754547,63.065426 200.309708,61.580334 199.864868,60.095242 
	C200.178528,60.017040 200.492188,59.938835 200.805862,59.860634 
	C200.942657,60.812584 201.079453,61.764534 201.381714,63.082909 
	C201.537842,63.648228 201.528519,63.847118 201.359299,64.298264 
z"/>
<path fill="#BDC9D8" opacity="1.000000" stroke="none" 
	d="
M231.289551,63.948761 
	C231.314713,63.260868 231.678040,62.630299 232.323624,61.932869 
	C232.279831,62.579369 231.953766,63.292725 231.289551,63.948761 
z"/>
<path fill="#C0CCDA" opacity="1.000000" stroke="none" 
	d="
M155.507111,45.834740 
	C153.258209,49.857906 149.471512,47.725983 146.234879,47.347832 
	C142.686005,46.933201 143.154984,43.636467 142.934067,40.643059 
	C143.623795,40.428699 144.976974,40.647881 144.969147,40.794201 
	C144.639771,46.947304 149.048233,45.671356 152.596390,45.731873 
	C153.418533,45.745892 154.240768,45.754387 155.507111,45.834740 
z"/>
<path fill="#C0CCDA" opacity="1.000000" stroke="none" 
	d="
M130.777954,40.255386 
	C130.000244,41.549393 128.882629,42.767239 127.442200,44.017998 
	C128.225616,42.760349 129.331833,41.469788 130.777954,40.255386 
z"/>
<path fill="#C0CCDA" opacity="1.000000" stroke="none" 
	d="
M153.567505,51.922974 
	C156.837952,51.426777 157.189072,51.890312 155.580399,55.008743 
	C154.738419,54.128586 154.228302,53.169525 153.567505,51.922974 
z"/>
<path fill="#BCC8D7" opacity="1.000000" stroke="none" 
	d="
M157.885193,40.226135 
	C158.095932,41.018215 158.011200,42.004463 157.632477,43.058151 
	C157.422226,42.223827 157.505981,41.322067 157.885193,40.226135 
z"/>
<path fill="#BCC8D7" opacity="1.000000" stroke="none" 
	d="
M112.909927,57.657677 
	C112.530441,57.076591 112.194649,56.081921 112.127960,54.967709 
	C112.582581,55.646809 112.768097,56.445454 112.909927,57.657677 
z"/>
<path fill="#C0CCDA" opacity="1.000000" stroke="none" 
	d="
M126.214508,48.619644 
	C126.622368,49.086922 126.774704,49.698692 126.872116,50.785362 
	C126.531128,50.428223 126.245056,49.596184 126.214508,48.619644 
z"/>
<path fill="#C2CEDB" opacity="1.000000" stroke="none" 
	d="
M138.277679,63.922146 
	C138.521484,63.281601 139.086594,62.697372 139.990967,62.165901 
	C139.753128,62.805264 139.176056,63.391861 138.277679,63.922146 
z"/>
<path fill="#6C87A9" opacity="1.000000" stroke="none" 
	d="
M107.346230,60.898598 
	C107.609261,61.457954 107.601212,62.067680 107.314041,62.840790 
	C107.048332,62.319103 107.061737,61.634033 107.346230,60.898598 
z"/>
<path fill="#BCC8D7" opacity="1.000000" stroke="none" 
	d="
M109.154366,52.605888 
	C109.363373,53.237171 109.305359,54.044777 108.952591,55.000938 
	C108.734344,54.360405 108.810844,53.571308 109.154366,52.605888 
z"/>
<path fill="#F4F6F9" opacity="1.000000" stroke="none" 
	d="
M264.319885,43.782337 
	C265.036377,42.941658 265.752899,42.100979 266.962402,41.040565 
	C267.967682,40.526169 268.480011,40.231503 268.992310,39.936832 
	C272.691132,39.947899 276.389954,39.958965 280.733093,40.284149 
	C281.467377,43.134220 281.557373,45.670185 281.647339,48.206146 
	C281.462708,49.537113 281.278076,50.868080 280.797882,52.827576 
	C280.243805,55.374023 279.985321,57.291943 279.726807,59.209862 
	C278.743805,62.963360 276.190063,64.368889 272.464294,64.244080 
	C269.213226,64.135178 265.956146,64.206139 262.227142,63.733986 
	C261.933990,60.441040 262.115387,57.611736 262.296814,54.782436 
	C262.492920,53.453945 262.689026,52.125454 263.170959,50.167999 
	C263.744537,47.620140 264.032227,45.701241 264.319885,43.782337 
z"/>
<path fill="#6E88A9" opacity="1.000000" stroke="none" 
	d="
M262.001404,54.948883 
	C262.115387,57.611736 261.933990,60.441040 261.745056,63.712357 
	C258.212189,61.153618 260.788177,58.131584 262.001404,54.948883 
z"/>
<path fill="#6E88A9" opacity="1.000000" stroke="none" 
	d="
M281.943298,48.037674 
	C281.557373,45.670185 281.467377,43.134220 281.193756,40.256924 
	C281.950073,40.749538 283.675262,41.589069 283.669403,42.416294 
	C283.656464,44.237225 282.769501,46.051945 281.943298,48.037674 
z"/>
<path fill="#A4B5CA" opacity="1.000000" stroke="none" 
	d="
M250.170441,54.761269 
	C250.183105,52.666367 250.490768,50.342575 251.074692,47.879223 
	C251.055771,50.003899 250.760605,52.268139 250.170441,54.761269 
z"/>
<path fill="#6E88A9" opacity="1.000000" stroke="none" 
	d="
M279.991455,59.039780 
	C279.985321,57.291943 280.243805,55.374023 280.789886,53.232521 
	C280.803680,54.962524 280.529907,56.916111 279.991455,59.039780 
z"/>
<path fill="#6E88A9" opacity="1.000000" stroke="none" 
	d="
M264.037720,43.930145 
	C264.032227,45.701241 263.744537,47.620140 263.171387,49.762711 
	C263.175781,48.016899 263.465668,46.047428 264.037720,43.930145 
z"/>
<path fill="#6E88A9" opacity="1.000000" stroke="none" 
	d="
M268.840881,39.715691 
	C268.480011,40.231503 267.967682,40.526169 267.148560,40.763618 
	C267.457642,40.302452 268.073547,39.898499 268.840881,39.715691 
z"/>
<path fill="#A4B5CA" opacity="1.000000" stroke="none" 
	d="
M249.344238,58.705009 
	C249.103561,58.597046 248.958679,58.363266 249.073227,58.205605 
	C249.332642,58.281723 249.440033,58.579197 249.344238,58.705009 
z"/>
<path fill="#BECAD9" opacity="1.000000" stroke="none" 
	d="
M159.149811,54.765217 
	C158.966583,53.666393 159.092636,52.364208 159.545425,51.005093 
	C159.734467,52.152725 159.596771,53.357292 159.149811,54.765217 
z"/>
<path fill="#FFFFFF" opacity="1.000000" stroke="none" 
	d="
M201.431519,54.567566 
	C201.374786,54.480579 201.598724,54.444218 201.598724,54.444218 
	C201.598724,54.444218 201.488266,54.654556 201.431519,54.567566 
z"/>
<path fill="#FFFFFF" opacity="1.000000" stroke="none" 
	d="
M246.958069,64.188980 
	C247.105392,64.198921 247.224060,64.654396 247.170944,65.317307 
	C246.975922,65.227997 246.952667,64.931259 246.958069,64.188980 
z"/>
</svg>